<svg width="24" height="24" viewBox="0 0 24 24" fill="none" xmlns="http://www.w3.org/2000/svg">
<path d="M14.2877 13.9115L14.2788 13.896L14.2673 13.9097C13.9804 14.252 13.6414 14.5171 13.2504 14.7052C12.8593 14.8933 12.4426 14.9873 12 14.9873C11.1708 14.9873 10.4659 14.6967 9.88449 14.1153C9.3031 13.5339 9.01252 12.829 9.01252 11.9998C9.01252 11.1706 9.3031 10.4657 9.88449 9.88431C10.4659 9.30292 11.1708 9.01234 12 9.01234C12.8292 9.01234 13.5341 9.30292 14.1155 9.88431C14.6969 10.4657 14.9875 11.1706 14.9875 11.9998V12.8126C14.9875 13.1432 15.1013 13.426 15.3288 13.6604C15.5564 13.895 15.836 14.0123 16.1667 14.0123C16.4973 14.0123 16.7769 13.895 17.0045 13.6604C17.232 13.426 17.3458 13.1432 17.3458 12.8126V11.9998C17.3458 10.5077 16.8279 9.24338 15.7922 8.20765C14.7565 7.17192 13.4921 6.65399 12 6.65399C10.5079 6.65399 9.24356 7.17192 8.20783 8.20765C7.1721 9.24338 6.65417 10.5077 6.65417 11.9998C6.65417 13.492 7.1721 14.7563 8.20783 15.792C9.24356 16.8277 10.5079 17.3457 12 17.3457H15.3208V18.3206H12C11.1264 18.3206 10.3051 18.1547 9.536 17.823C8.76663 17.4911 8.09751 17.0409 7.52852 16.4721C6.95953 15.9034 6.50904 15.2346 6.17705 14.4655C5.84516 13.6968 5.67919 12.8753 5.67919 12.0009C5.67919 11.1266 5.84509 10.3049 6.17683 9.53582C6.50868 8.76644 6.95897 8.09732 7.52769 7.52834C8.09643 6.95935 8.76526 6.50885 9.53429 6.17686C10.3031 5.84498 11.1246 5.679 11.9989 5.679C12.8732 5.679 13.6949 5.84494 14.464 6.17673C15.2334 6.50863 15.9025 6.95901 16.4715 7.52784C17.0405 8.09668 17.491 8.76563 17.823 9.53479C18.1548 10.3037 18.3208 11.1253 18.3208 11.9998V12.8126C18.3208 13.418 18.1131 13.9315 17.6976 14.3539C17.2822 14.7762 16.7721 14.9873 16.1667 14.9873C15.7756 14.9873 15.4133 14.8917 15.0793 14.7005C14.7453 14.5093 14.4815 14.2463 14.2877 13.9115ZM12 14.0123C12.5588 14.0123 13.0342 13.8166 13.4255 13.4253C13.8168 13.0341 14.0125 12.5587 14.0125 11.9998C14.0125 11.441 13.8168 10.9656 13.4255 10.5743C13.0342 10.1831 12.5588 9.98732 12 9.98732C11.4412 9.98732 10.9658 10.1831 10.5745 10.5743C10.1832 10.9656 9.9875 11.441 9.9875 11.9998C9.9875 12.5587 10.1832 13.0341 10.5745 13.4253C10.9658 13.8166 11.4412 14.0123 12 14.0123Z" fill="#C4C9CC" stroke="#C4C9CC" stroke-width="0.025"/>
</svg>
