<svg width="24" height="24" viewBox="0 0 24 24" fill="none" xmlns="http://www.w3.org/2000/svg">
<path d="M7.21153 18C6.86634 18 6.57812 17.8844 6.34688 17.6531C6.11563 17.4219 6 17.1337 6 16.7885V7.21153C6 6.86634 6.11563 6.57812 6.34688 6.34688C6.57812 6.11563 6.86634 6 7.21153 6H16.7885C17.1337 6 17.4219 6.11563 17.6531 6.34688C17.8844 6.57812 18 6.86634 18 7.21153V16.7885C18 17.1337 17.8844 17.4219 17.6531 17.6531C17.4219 17.8844 17.1337 18 16.7885 18H7.21153ZM7.21153 17.25H16.7885C16.9231 17.25 17.0337 17.2067 17.1202 17.1202C17.2067 17.0337 17.25 16.9231 17.25 16.7885V7.21153C17.25 7.07692 17.2067 6.96634 17.1202 6.87981C17.0337 6.79327 16.9231 6.75 16.7885 6.75H7.21153C7.07692 6.75 6.96634 6.79327 6.87981 6.87981C6.79327 6.96634 6.75 7.07692 6.75 7.21153V16.7885C6.75 16.9231 6.79327 17.0337 6.87981 17.1202C6.96634 17.2067 7.07692 17.25 7.21153 17.25Z" fill="#C4C9CC"/>
<path d="M10.6667 14.5225L12.6947 8.6665H13.6187L11.5867 14.5225H10.6667Z" fill="#C4C9CC"/>
</svg>
