<svg width="16" height="16" viewBox="0 0 16 16" fill="none" xmlns="http://www.w3.org/2000/svg">
<path d="M4.74362 11.41C4.57652 11.41 4.43646 11.3535 4.32342 11.2405C4.21039 11.1275 4.15387 10.9874 4.15387 10.8203V9.82032H12.4039L12.6154 10.0319V3.99982H13.6154C13.7825 3.99982 13.9225 4.05634 14.0356 4.16937C14.1486 4.2824 14.2051 4.42246 14.2051 4.58955V13.769L11.8462 11.41H4.74362ZM1.79492 10.8459V2.25625C1.79492 2.08915 1.85144 1.94909 1.96447 1.83605C2.07751 1.72302 2.21757 1.6665 2.38467 1.6665H10.6923C10.8594 1.6665 10.9995 1.72302 11.1125 1.83605C11.2256 1.94909 11.2821 2.08915 11.2821 2.25625V7.89725C11.2821 8.06434 11.2256 8.2044 11.1125 8.31744C10.9995 8.43047 10.8594 8.48699 10.6923 8.48699H4.15387L1.79492 10.8459ZM10.2821 7.487V2.66649H2.79491V7.94859L3.25647 7.487H10.2821Z" fill="#C4C9CC"/>
</svg>
