<svg width="16" height="16" viewBox="0 0 16 16" fill="none" xmlns="http://www.w3.org/2000/svg">
<path d="M5.91761 13.6667H3.33299C3.05608 13.6667 2.82019 13.5693 2.62531 13.3744C2.43044 13.1795 2.33301 12.9437 2.33301 12.6667V10.0821C2.78942 10.0266 3.1813 9.83681 3.50864 9.51289C3.83599 9.18896 3.99966 8.7958 3.99966 8.33341C3.99966 7.87102 3.83599 7.47786 3.50864 7.15392C3.1813 6.83 2.78942 6.64026 2.33301 6.58469V4.00007C2.33301 3.72316 2.43044 3.48727 2.62531 3.29239C2.82019 3.09752 3.05608 3.00009 3.33299 3.00009H5.99966C6.05949 2.57617 6.24517 2.2266 6.55671 1.95139C6.86825 1.67618 7.23812 1.53857 7.66632 1.53857C8.09452 1.53857 8.4644 1.67618 8.77594 1.95139C9.08748 2.2266 9.27316 2.57617 9.33299 3.00009H11.9997C12.2766 3.00009 12.5125 3.09752 12.7073 3.29239C12.9022 3.48727 12.9996 3.72316 12.9996 4.00007V6.66674C13.4236 6.72657 13.7731 6.91226 14.0483 7.22379C14.3236 7.53534 14.4612 7.90521 14.4612 8.33341C14.4612 8.76161 14.3236 9.13148 14.0483 9.44302C13.7731 9.75456 13.4236 9.94024 12.9996 10.0001V12.6667C12.9996 12.9437 12.9022 13.1795 12.7073 13.3744C12.5125 13.5693 12.2766 13.6667 11.9997 13.6667H9.41504C9.35521 13.1881 9.15991 12.7907 8.82914 12.4744C8.49837 12.1582 8.11077 12.0001 7.66632 12.0001C7.22188 12.0001 6.83427 12.1582 6.50351 12.4744C6.17274 12.7907 5.97744 13.1881 5.91761 13.6667ZM3.33299 12.6667H5.14071C5.36891 12.0787 5.72937 11.6539 6.22211 11.3924C6.71484 11.1309 7.19625 11.0001 7.66632 11.0001C8.1364 11.0001 8.61781 11.1309 9.11054 11.3924C9.60328 11.6539 9.96374 12.0787 10.1919 12.6667H11.9997V9.03856H12.8201C13.0244 9.01291 13.1823 8.93044 13.2939 8.79112C13.4054 8.6518 13.4612 8.49923 13.4612 8.33341C13.4612 8.16759 13.4054 8.01501 13.2939 7.87569C13.1823 7.73638 13.0244 7.6539 12.8201 7.62826H11.9997V4.00007H8.37147V3.17959C8.34583 2.97531 8.26335 2.8174 8.12404 2.70586C7.98472 2.59432 7.83215 2.53856 7.66632 2.53856C7.5005 2.53856 7.34793 2.59432 7.20861 2.70586C7.0693 2.8174 6.98682 2.97531 6.96117 3.17959V4.00007H3.33299V5.82574C3.83897 6.03514 4.24324 6.36783 4.54579 6.82381C4.84836 7.27979 4.99964 7.78299 4.99964 8.33341C4.99964 8.87699 4.84836 9.37677 4.54579 9.83276C4.24324 10.2887 3.83897 10.6248 3.33299 10.8411V12.6667Z" fill="#C4C9CC"/>
</svg>
