<svg width="16" height="16" viewBox="0 0 16 16" fill="none" xmlns="http://www.w3.org/2000/svg">
<path d="M6.46196 14.3336L6.20811 12.3029C6.02948 12.243 5.84636 12.1593 5.65874 12.0516C5.47113 11.9439 5.3034 11.8285 5.15553 11.7054L3.27476 12.5003L1.73633 9.83364L3.36324 8.60416C3.34786 8.50501 3.33696 8.40544 3.33054 8.30544C3.32413 8.20544 3.32093 8.10587 3.32093 8.00673C3.32093 7.91185 3.32413 7.81548 3.33054 7.71761C3.33696 7.61974 3.34786 7.51269 3.36324 7.39646L1.73633 6.16698L3.27476 3.51316L5.14911 4.30163C5.3098 4.17427 5.48138 4.05782 5.66386 3.95226C5.84635 3.84669 6.02563 3.76186 6.20169 3.69776L6.46196 1.66699H9.53883L9.79268 3.70418C9.99268 3.77682 10.1737 3.86165 10.3356 3.95866C10.4976 4.05567 10.6611 4.16999 10.826 4.30163L12.726 3.51316L14.2645 6.16698L12.6119 7.41568C12.6358 7.52338 12.6489 7.62402 12.651 7.71761C12.6531 7.8112 12.6542 7.90543 12.6542 8.00031C12.6542 8.09091 12.6521 8.183 12.6478 8.27659C12.6435 8.37018 12.6281 8.47724 12.6016 8.59776L14.2414 9.83364L12.7029 12.5003L10.826 11.699C10.6611 11.8306 10.4927 11.9471 10.3209 12.0484C10.1491 12.1496 9.97302 12.2323 9.79268 12.2964L9.53883 14.3336H6.46196ZM7.33373 13.3336H8.64398L8.88373 11.5477C9.2239 11.4589 9.53479 11.3326 9.81641 11.1689C10.098 11.0052 10.3696 10.7948 10.6312 10.5375L12.2876 11.2336L12.944 10.1003L11.4978 9.01056C11.5534 8.83791 11.5912 8.66869 11.6113 8.50288C11.6314 8.33706 11.6414 8.16954 11.6414 8.00031C11.6414 7.82681 11.6314 7.65929 11.6113 7.49774C11.5912 7.33621 11.5534 7.17125 11.4978 7.00288L12.9568 5.90031L12.3004 4.76698L10.6247 5.47339C10.4017 5.23493 10.1344 5.02424 9.82283 4.84134C9.51128 4.65843 9.19611 4.52894 8.87731 4.45288L8.66706 2.66698H7.34398L7.12348 4.44646C6.7833 4.5268 6.46919 4.64988 6.18116 4.81569C5.89313 4.9815 5.61835 5.19518 5.35681 5.45673L3.70039 4.76698L3.04398 5.90031L4.48373 6.97339C4.42817 7.1315 4.38928 7.29603 4.36706 7.46698C4.34484 7.63792 4.33373 7.81784 4.33373 8.00673C4.33373 8.18023 4.34484 8.35031 4.36706 8.51698C4.38928 8.68364 4.42603 8.84817 4.47731 9.01056L3.04398 10.1003L3.70039 11.2336L5.35039 10.5336C5.60338 10.7935 5.87389 11.0063 6.16193 11.1721C6.44996 11.3379 6.76834 11.4653 7.11706 11.5542L7.33373 13.3336ZM8.00808 10.0003C8.56278 10.0003 9.03478 9.80564 9.42409 9.41633C9.81341 9.027 10.0081 8.555 10.0081 8.00031C10.0081 7.44562 9.81341 6.97362 9.42409 6.58429C9.03478 6.19498 8.56278 6.00033 8.00808 6.00033C7.44656 6.00033 6.97284 6.19498 6.58694 6.58429C6.20106 6.97362 6.00811 7.44562 6.00811 8.00031C6.00811 8.555 6.20106 9.027 6.58694 9.41633C6.97284 9.80564 7.44656 10.0003 8.00808 10.0003Z" fill="#C4C9CC"/>
</svg>
