<svg width="16" height="16" viewBox="0 0 16 16" fill="none" xmlns="http://www.w3.org/2000/svg">
<path d="M3.67917 4.00012V3.98762H3.66667H3.0125V3.01263H5.99998H6.01248V3.00013V2.4229H9.98748V3.00013V3.01263H9.99998H12.9875V3.98762H12.3333H12.3208V4.00012V12.4616C12.3208 12.7952 12.2054 13.077 11.9745 13.3079C11.7435 13.5389 11.4617 13.6543 11.1282 13.6543H4.8718C4.54264 13.6543 4.26185 13.5378 4.02872 13.3047C3.79558 13.0716 3.67917 12.7908 3.67917 12.4616V4.00012ZM11.3458 4.00012V3.98762H11.3333H4.66665H4.65415V4.00012V12.4616C4.65415 12.5244 4.67446 12.5769 4.71551 12.6179C4.75657 12.659 4.80902 12.6793 4.8718 12.6793H11.1282C11.1834 12.6793 11.2334 12.6562 11.2781 12.6115C11.3227 12.5669 11.3458 12.5168 11.3458 12.4616V4.00012ZM7.25672 5.34595V11.321H6.28173V5.34595H7.25672ZM9.71823 5.34595V11.321H8.74325V5.34595H9.71823Z" fill="#C4C9CC" stroke="#C4C9CC" stroke-width="0.025"/>
</svg>
