<svg width="16" height="16" viewBox="0 0 16 16" fill="none" xmlns="http://www.w3.org/2000/svg">
<mask id="mask0_7229_305570" style="mask-type:alpha" maskUnits="userSpaceOnUse" x="0" y="-1" width="17" height="17">
<rect x="0.181641" y="-0.214844" width="16" height="16" fill="#D9D9D9"/>
</mask>
<g mask="url(#mask0_7229_305570)">
<path d="M3.72027 13.4515C3.38351 13.4515 3.09847 13.3348 2.86514 13.1015C2.6318 12.8681 2.51514 12.5831 2.51514 12.2463V3.3233C2.51514 2.98654 2.6318 2.7015 2.86514 2.46816C3.09847 2.23483 3.38351 2.11816 3.72027 2.11816H7.92535V3.11815H3.72027C3.66898 3.11815 3.62196 3.13951 3.57922 3.18225C3.53649 3.22499 3.51512 3.27201 3.51512 3.3233V12.2463C3.51512 12.2976 3.53649 12.3446 3.57922 12.3874C3.62196 12.4301 3.66898 12.4515 3.72027 12.4515H12.6433C12.6946 12.4515 12.7416 12.4301 12.7844 12.3874C12.8271 12.3446 12.8485 12.2976 12.8485 12.2463V8.04125H13.8484V12.2463C13.8484 12.5831 13.7318 12.8681 13.4984 13.1015C13.2651 13.3348 12.9801 13.4515 12.6433 13.4515H3.72027ZM6.66127 10.0079L5.95872 9.30533L12.1459 3.11815H9.51512V2.11816H13.8484V6.45148H12.8485V3.8207L6.66127 10.0079Z" fill="#C4C9CC"/>
</g>
</svg>
